<?xml version="1.0" standalone="no"?>
<!DOCTYPE svg PUBLIC "-//W3C//DTD SVG 20010904//EN"
 "http://www.w3.org/TR/2001/REC-SVG-20010904/DTD/svg10.dtd">
<svg version="1.0" xmlns="http://www.w3.org/2000/svg"
 width="500.000000pt" height="500.000000pt" viewBox="0 0 500.000000 500.000000"
 preserveAspectRatio="xMidYMid meet">

<g transform="translate(0.000000,500.000000) scale(0.100000,-0.100000)"
fill="#000000" stroke="none">
<path d="M1815 3993 c-114 -15 -233 -100 -284 -202 -52 -102 -53 -115 -49
-821 l3 -655 23 -57 c27 -67 105 -157 168 -194 91 -53 95 -54 824 -54 729 0
733 1 824 54 63 37 141 127 168 194 l23 57 3 669 c2 592 1 675 -14 725 -36
128 -115 211 -254 270 -30 13 -138 15 -720 17 -377 1 -698 0 -715 -3z m1412
-166 c61 -33 102 -77 123 -133 19 -53 20 -74 20 -689 0 -612 -1 -636 -20 -688
-25 -67 -76 -115 -144 -138 l-51 -16 -3 455 c-1 316 -6 459 -13 469 -8 9 -43
13 -130 13 -119 0 -120 0 -129 -26 -6 -15 -10 -205 -10 -470 l0 -444 -85 0
-84 0 -3 315 c-3 268 -5 317 -18 325 -16 11 -211 13 -247 4 l-23 -6 0 -319 0
-319 -85 0 -85 0 0 227 c0 197 -2 229 -17 245 -14 15 -32 18 -129 18 -89 0
-116 -3 -128 -16 -14 -13 -16 -50 -16 -245 l0 -229 -49 0 c-111 0 -201 53
-247 148 -18 35 -19 76 -22 677 -2 457 0 651 8 679 27 90 100 159 189 177 20
4 335 6 701 6 615 -2 667 -3 697 -20z"/>
<path d="M2780 3630 c-11 -11 -20 -25 -20 -31 0 -6 22 -34 50 -62 l49 -52
-181 -182 -182 -182 -82 79 c-65 64 -88 80 -111 80 -25 0 -64 -33 -256 -224
-244 -240 -248 -246 -206 -300 27 -34 62 -48 92 -37 12 5 88 74 168 153 81 78
160 156 178 172 l31 30 84 -82 c65 -63 90 -82 112 -82 23 0 67 39 256 228
l229 227 60 -62 c63 -65 86 -74 113 -47 13 13 16 44 16 187 0 95 -5 179 -10
187 -8 12 -42 15 -190 17 -168 2 -182 1 -200 -17z"/>
<path d="M520 1405 l0 -245 45 0 44 0 3 158 3 157 63 -130 c35 -71 65 -131 67
-133 1 -1 15 -4 31 -5 28 -2 32 4 94 130 36 73 67 132 70 133 3 0 4 -70 2
-155 l-3 -155 50 0 51 0 0 245 0 245 -54 0 c-31 0 -57 -5 -63 -12 -5 -7 -38
-77 -73 -155 -36 -79 -67 -143 -70 -143 -6 0 -47 86 -101 210 -18 41 -37 81
-42 88 -6 7 -32 12 -63 12 l-54 0 0 -245z"/>
<path d="M2690 1406 l0 -246 130 0 c150 0 189 11 220 62 11 18 20 49 20 68 0
43 -32 97 -64 110 l-25 9 35 35 c39 39 46 88 17 137 -29 49 -73 63 -210 67
l-123 4 0 -246z m228 148 c15 -10 22 -25 22 -49 0 -44 -20 -55 -99 -55 l-61 0
0 60 0 60 58 0 c36 0 66 -6 80 -16z m12 -197 c32 -16 40 -70 14 -98 -14 -15
-31 -19 -91 -19 l-73 0 0 65 0 65 63 0 c34 0 73 -6 87 -13z"/>
<path d="M4390 1563 c0 -81 -1 -85 -17 -71 -38 32 -82 42 -122 28 -57 -20 -78
-38 -101 -84 -44 -91 -18 -223 53 -267 39 -24 126 -22 155 4 23 21 32 21 32 2
0 -11 12 -15 45 -15 l45 0 0 245 0 245 -45 0 -45 0 0 -87z m-21 -149 c15 -20
21 -41 21 -81 0 -47 -4 -59 -29 -84 -33 -33 -50 -35 -91 -14 -54 28 -64 132
-17 183 30 32 89 31 116 -4z"/>
<path d="M1230 1518 c-47 -13 -96 -52 -116 -90 -22 -42 -22 -144 0 -186 9 -17
33 -44 53 -59 32 -25 45 -28 108 -28 60 0 77 4 108 25 20 14 44 43 54 65 18
40 23 119 10 166 -10 37 -70 95 -106 102 -16 3 -39 8 -52 11 -13 2 -40 0 -59
-6z m83 -80 c37 -19 46 -40 47 -104 0 -66 -19 -98 -64 -110 -29 -7 -81 18 -96
47 -28 52 -6 143 40 166 31 16 46 16 73 1z"/>
<path d="M1670 1519 c-13 -6 -33 -17 -42 -26 -17 -15 -18 -15 -18 0 0 14 -10
17 -50 17 l-50 0 2 -172 3 -173 48 -3 47 -3 0 127 c0 143 5 153 71 154 61 0
69 -18 69 -158 l0 -122 51 0 51 0 -4 138 c-5 155 -12 180 -68 211 -41 23 -71
25 -110 10z"/>
<path d="M2031 1516 c-159 -42 -178 -288 -28 -351 45 -19 107 -19 150 -1 32
13 87 68 87 87 0 5 -22 9 -50 9 -27 0 -50 -4 -50 -9 0 -5 -13 -14 -29 -21 -52
-21 -111 12 -111 62 l0 28 125 0 125 0 0 28 c0 80 -51 155 -113 167 -18 4 -39
8 -47 10 -8 1 -35 -2 -59 -9z m77 -72 c12 -4 29 -19 38 -35 l15 -29 -81 0
c-89 0 -102 12 -54 49 28 22 44 25 82 15z"/>
<path d="M3245 1519 c-139 -33 -191 -199 -97 -311 66 -78 203 -79 273 -2 90
99 48 272 -74 305 -21 5 -44 12 -50 14 -7 1 -30 -1 -52 -6z m94 -95 c29 -24
31 -31 31 -87 -1 -69 -13 -92 -57 -107 -57 -20 -108 20 -119 91 -9 61 43 128
98 129 9 0 30 -12 47 -26z"/>
<path d="M3615 1518 c-36 -13 -81 -53 -88 -78 -4 -15 3 -19 37 -22 33 -4 45 0
63 19 26 27 50 29 81 7 14 -10 22 -25 22 -45 0 -28 -2 -29 -47 -29 -106 0
-173 -46 -173 -117 0 -54 53 -103 112 -103 24 0 60 9 81 20 31 17 37 17 37 5
0 -11 11 -15 40 -15 l40 0 0 135 c0 162 -9 187 -76 216 -50 21 -83 23 -129 7z
m115 -231 c0 -40 -27 -67 -69 -67 -42 0 -61 14 -61 47 0 29 25 42 83 43 42 0
47 -2 47 -23z"/>
<path d="M4033 1510 c-12 -5 -26 -17 -32 -27 -10 -16 -10 -16 -11 5 0 19 -5
22 -45 22 l-45 0 0 -175 0 -175 45 0 45 0 0 120 0 120 31 19 c18 11 44 18 60
16 28 -4 29 -3 29 40 0 43 -2 45 -27 44 -16 0 -38 -4 -50 -9z"/>
<path d="M2280 1498 c0 -7 30 -89 67 -181 l66 -168 -20 -27 c-11 -15 -31 -29
-44 -31 -28 -4 -39 -17 -39 -48 0 -20 5 -23 39 -23 57 0 86 14 110 54 18 28
171 416 171 432 0 2 -20 4 -44 4 l-44 0 -37 -112 c-21 -62 -41 -116 -44 -121
-4 -4 -17 23 -30 60 -12 38 -31 92 -43 121 -20 52 -21 52 -64 52 -29 0 -44 -4
-44 -12z"/>
</g>
</svg>
